<?xml version="1.0" standalone="no"?>
<!DOCTYPE svg PUBLIC "-//W3C//DTD SVG 20010904//EN"
 "http://www.w3.org/TR/2001/REC-SVG-20010904/DTD/svg10.dtd">
<svg version="1.0" xmlns="http://www.w3.org/2000/svg"
 width="100.000000pt" height="100.000000pt" viewBox="0 0 100.000000 100.000000"
 preserveAspectRatio="xMidYMid meet">

<g transform="translate(0.000000,100.000000) scale(0.100000,-0.100000)"
fill="#000000" stroke="none">
<path d="M440 740 l0 -50 100 0 100 0 0 -250 0 -250 50 0 50 0 2 248 3 247 98
3 97 3 0 49 0 50 -250 0 -250 0 0 -50z"/>
<path d="M200 571 l0 -81 -85 0 -85 0 0 -30 0 -30 85 0 85 0 0 -81 0 -80 28 3
c27 3 27 4 30 81 l3 77 79 0 80 0 0 30 0 30 -80 0 -79 0 -3 78 c-3 76 -3 77
-30 80 l-28 3 0 -80z"/>
</g>
</svg>
